<svg width="18" height="15" viewBox="0 0 18 15" fill="none" xmlns="http://www.w3.org/2000/svg">
<path fill-rule="evenodd" clip-rule="evenodd" d="M0.87868 1.37868C0 2.25736 0 3.67157 0 6.5V8.5C0 11.3284 0 12.7426 0.87868 13.6213C1.75736 14.5 3.17157 14.5 6 14.5H12C14.8284 14.5 16.2426 14.5 17.1213 13.6213C18 12.7426 18 11.3284 18 8.5V6.5C18 3.67157 18 2.25736 17.1213 1.37868C16.2426 0.5 14.8284 0.5 12 0.5H6C3.17157 0.5 1.75736 0.5 0.87868 1.37868ZM3.5547 3.66795C3.09517 3.3616 2.4743 3.48577 2.16795 3.9453C1.8616 4.40483 1.98577 5.0257 2.4453 5.33205L7.8906 8.96225C8.5624 9.41012 9.4376 9.41012 10.1094 8.96225L15.5547 5.33205C16.0142 5.0257 16.1384 4.40483 15.8321 3.9453C15.5257 3.48577 14.9048 3.3616 14.4453 3.66795L9 7.29815L3.5547 3.66795Z" fill="#222222"/>
</svg>
