<svg width="41" height="45" viewBox="0 0 41 45" fill="none" xmlns="http://www.w3.org/2000/svg">
<path d="M40.745 19.537C40.6123 23.4608 39.0648 27.2041 36.388 30.076C35.2556 31.2599 34.6185 32.8318 34.607 34.47V41.57C34.6118 42.2098 34.3625 42.8254 33.9138 43.2816C33.4651 43.7377 32.8538 43.9972 32.214 44.003H18.744C18.1031 43.9985 17.4903 43.7397 17.0402 43.2834C16.5901 42.8272 16.3397 42.2109 16.344 41.57V40.77C16.3461 40.4957 16.2392 40.2317 16.0469 40.0361C15.8545 39.8406 15.5923 39.7294 15.318 39.727H9.66398C8.37757 39.7156 7.14832 39.194 6.24638 38.2767C5.34443 37.3594 4.84359 36.1214 4.85398 34.835V30.849C4.85477 30.7128 4.82871 30.5777 4.77726 30.4515C4.72581 30.3253 4.64996 30.2105 4.55412 30.1136C4.45827 30.0168 4.3443 29.9397 4.21867 29.887C4.09304 29.8342 3.95826 29.8067 3.822 29.806H2.72196C2.39411 29.802 2.07237 29.717 1.78532 29.5585C1.49826 29.4001 1.25485 29.1732 1.0767 28.8979C0.898544 28.6227 0.791187 28.3077 0.764198 27.9809C0.73721 27.6541 0.791394 27.3258 0.921974 27.025L3.788 20.245C4.39463 18.8489 4.82621 17.3831 5.07298 15.881C5.581 12.4936 7.03587 9.31879 9.26994 6.72238C11.504 4.12597 14.4263 2.21371 17.7 1.20602V10.606C16.224 11.4685 14.9862 12.6854 14.0987 14.1466C13.2113 15.6078 12.7021 17.2671 12.6172 18.9746C12.5323 20.6821 12.8745 22.3838 13.6126 23.9258C14.3508 25.4677 15.4618 26.8014 16.845 27.806C16.262 28.244 15.678 28.747 15.077 29.27C13.025 31.044 10.897 32.884 8.25596 32.716C8.06132 32.7047 7.8664 32.732 7.68235 32.7963C7.4983 32.8606 7.32876 32.9608 7.18357 33.0909C7.03838 33.221 6.92037 33.3786 6.83634 33.5545C6.75231 33.7305 6.70397 33.9213 6.69401 34.116C6.6695 34.51 6.80126 34.8977 7.06071 35.1951C7.32016 35.4926 7.68638 35.6758 8.07999 35.705C8.24999 35.71 8.42099 35.716 8.59299 35.716C12.166 35.716 14.83 33.416 16.993 31.544C17.7918 30.7756 18.6826 30.1089 19.645 29.559C19.7785 29.4992 19.9017 29.4185 20.01 29.32C21.8773 29.8282 23.8507 29.7936 25.699 29.22C27.2317 28.7502 28.6253 27.9106 29.7572 26.7754C30.8891 25.6402 31.7246 24.2441 32.19 22.71C32.9189 20.4686 32.8591 18.0452 32.0205 15.8425C31.1819 13.6398 29.615 11.7902 27.58 10.601V1.09302C31.5507 2.20182 35.0221 4.63638 37.4172 7.99185C39.8123 11.3473 40.9866 15.4215 40.745 19.537Z" fill="#68768C"/>
<path d="M24.903 12.4351V0.335056C23.4343 -0.112011 21.8657 -0.112011 20.397 0.335056V12.4351C18.7776 12.9779 17.4087 14.0873 16.5421 15.5592C15.6756 17.0311 15.3698 18.7664 15.681 20.4458C15.9922 22.1252 16.8994 23.6357 18.2357 24.6994C19.572 25.7631 21.2476 26.3085 22.954 26.2351C24.7151 26.1417 26.3798 25.402 27.6296 24.1577C28.8793 22.9133 29.6261 21.2517 29.727 19.4911C29.7996 17.9504 29.3679 16.428 28.4974 15.1547C27.6269 13.8814 26.365 12.9266 24.903 12.4351ZM25.033 19.6981C24.9302 20.1467 24.703 20.5573 24.3774 20.8826C24.0517 21.2079 23.6409 21.4347 23.1921 21.5369C22.7433 21.6392 22.2748 21.6127 21.8404 21.4606C21.406 21.3085 21.0233 21.037 20.7364 20.6771C20.4494 20.3172 20.2697 19.8837 20.2181 19.4263C20.1665 18.969 20.245 18.5063 20.4446 18.0915C20.6441 17.6768 20.9567 17.3267 21.3463 17.0816C21.7359 16.8366 22.1867 16.7064 22.647 16.7061C23.0153 16.7043 23.3791 16.7859 23.7113 16.9449C24.0434 17.1039 24.3353 17.3361 24.5649 17.624C24.7945 17.9119 24.9559 18.2481 25.037 18.6073C25.118 18.9665 25.1167 19.3394 25.033 19.6981Z" fill="#68768C"/>
</svg>
