<svg width="35" height="45" viewBox="0 0 35 45" fill="none" xmlns="http://www.w3.org/2000/svg">
<path d="M33.153 27.1739C32.214 24.6219 31.125 22.7089 28.813 22.2369C25.041 21.4689 24.457 25.3189 17.644 25.3369C10.738 25.3749 10.128 21.4689 6.34401 22.2039C5.76276 22.3129 5.20976 22.5389 4.71861 22.8683C4.22746 23.1977 3.80844 23.6235 3.48701 24.1199C0.363013 28.9379 -0.320982 33.7929 1.56102 37.7929C4.19902 43.3929 12.331 43.7879 15.804 43.9569C21.663 44.2429 30.804 43.2859 33.455 38.0259C35.327 34.3089 34.417 30.6149 33.153 27.1739Z" fill="#68768C"/>
<path d="M17.59 21.036C18.9659 21.0307 20.3274 20.7545 21.5965 20.223C22.8656 19.6914 24.0176 18.9151 24.9867 17.9382C25.9557 16.9614 26.7228 15.8032 27.2441 14.5298C27.7654 13.2565 28.0308 11.8929 28.025 10.517C28.0247 9.96483 27.9819 9.41355 27.897 8.86798C27.671 7.42498 27.1472 6.04482 26.3589 4.81525C25.5706 3.58568 24.535 2.53357 23.318 1.72595C21.7587 0.68934 19.9465 0.0968287 18.076 0.0119653C17.915 0.00396533 17.754 2.43902e-06 17.59 2.43902e-06C15.4645 -0.00145756 13.3902 0.652581 11.65 1.87299C9.82307 3.15359 8.4498 4.98108 7.72806 7.09217C7.00632 9.20325 6.97336 11.4889 7.63391 13.6199C8.29447 15.751 9.61448 17.6173 11.4037 18.9501C13.193 20.2828 15.3591 21.0132 17.59 21.036ZM11.078 8.28998C11.2359 7.82246 11.5009 7.39829 11.8518 7.05133C12.2027 6.70438 12.6298 6.44423 13.0991 6.29163C13.5684 6.13902 14.0668 6.09817 14.5547 6.17237C15.0426 6.24656 15.5063 6.43377 15.909 6.719C18.3051 8.4486 21.1859 9.37807 24.141 9.375C24.217 9.375 24.293 9.36898 24.369 9.36798C24.5296 10.2772 24.5054 11.2094 24.298 12.1091C24.0906 13.0088 23.7041 13.8576 23.1617 14.6047C22.6193 15.3519 21.932 15.9823 21.1408 16.4581C20.3496 16.934 19.4706 17.2457 18.5564 17.3746C17.6421 17.5036 16.7113 17.4472 15.8193 17.2087C14.9273 16.9702 14.0925 16.5546 13.3646 15.9866C12.6367 15.4186 12.0306 14.7098 11.5824 13.9026C11.1342 13.0954 10.8532 12.2061 10.756 11.288C10.6454 10.2771 10.7552 9.25429 11.078 8.28998Z" fill="#68768C"/>
</svg>
