<svg width="40" height="44" viewBox="0 0 40 44" fill="none" xmlns="http://www.w3.org/2000/svg">
<path d="M38.1099 35.295C37.1608 34.5116 36.1722 33.7773 35.1479 33.095C32.9659 31.672 30.7539 30.295 28.4259 28.827C28.3518 28.7805 28.2676 28.7529 28.1804 28.7465C28.0932 28.74 28.0057 28.755 27.9256 28.7901C27.8455 28.8252 27.7754 28.8794 27.721 28.9479C27.6667 29.0164 27.6298 29.0971 27.6138 29.183C26.7138 34.02 25.8559 38.6551 24.9879 43.3281C24.9737 43.4053 24.9766 43.4846 24.9964 43.5606C25.0163 43.6366 25.0527 43.7072 25.1029 43.7676C25.153 43.828 25.2158 43.8766 25.2868 43.91C25.3579 43.9435 25.4354 43.9609 25.5139 43.9611H37.2309C37.5569 43.9611 37.8796 43.8967 38.1806 43.7717C38.4817 43.6467 38.7551 43.4636 38.9852 43.2327C39.2153 43.0019 39.3977 42.7278 39.5217 42.4264C39.6457 42.1249 39.7089 41.802 39.7078 41.4761C39.7078 40.5351 39.7079 39.604 39.7279 38.676C39.7516 38.0236 39.6168 37.3752 39.335 36.7864C39.0532 36.1975 38.6329 35.6858 38.1099 35.295Z" fill="#68768C"/>
<path d="M1.853 35.6671C1.29496 36.1243 0.921799 36.7685 0.802953 37.4801C0.722953 38.8301 0.723936 40.1801 0.735936 41.5441C0.741475 42.1974 1.00492 42.8221 1.46885 43.282C1.93278 43.742 2.55967 44.0001 3.21299 44.0001H14.7929C14.8713 44.0001 14.9488 43.9828 15.0197 43.9495C15.0907 43.9163 15.1534 43.8679 15.2036 43.8077C15.2538 43.7475 15.2901 43.677 15.31 43.6012C15.33 43.5254 15.333 43.4462 15.3189 43.3691C14.4579 38.6411 13.609 33.9841 12.748 29.2591C12.733 29.1759 12.6985 29.0974 12.6473 29.03C12.5961 28.9627 12.5296 28.9084 12.4535 28.8716C12.3773 28.8349 12.2935 28.8167 12.209 28.8185C12.1244 28.8203 12.0415 28.8421 11.967 28.8821C8.36842 30.7851 4.97865 33.0591 1.853 35.6671Z" fill="#68768C"/>
<path d="M21.239 30.303L25.3709 27.117C25.6107 26.93 25.8045 26.6906 25.9373 26.417C26.0701 26.1435 26.1384 25.8431 26.1369 25.539C26.1369 23.153 26.128 22.594 26.165 22.277C26.185 22.117 26.215 22.016 26.26 21.767L27.453 19.634C28.779 20.01 28.698 18.371 29.021 15.694C29.142 14.671 29.0309 14.365 28.6689 14.184L28.603 14.057C28.858 12.976 30.2589 10.216 29.9329 7.705C29.814 6.79998 29.4383 5.94798 28.8505 5.24961C28.2628 4.55125 27.4874 4.03574 26.6159 3.76402C25.2609 0.551018 21.643 -0.0239752 19.281 0.459025C17.815 0.759025 14.134 0.237022 12.655 0.00602192C12.5819 -0.00449472 12.5073 0.00376693 12.4383 0.0300087C12.3693 0.0562505 12.3082 0.0995714 12.2606 0.155985C12.213 0.212399 12.1805 0.280031 12.1662 0.352457C12.1519 0.424884 12.1563 0.499726 12.1789 0.569987C12.342 1.09401 12.5343 1.6085 12.755 2.111C12.7973 2.21132 12.8025 2.32346 12.7695 2.42723C12.7365 2.53099 12.6674 2.61955 12.5749 2.67698C10.2749 4.14998 9.20894 7.82 11.6569 13.52L11.233 14.105C10.727 14.289 10.5599 14.518 10.6989 15.692C11.0339 18.501 10.943 19.956 12.269 19.632L12.714 19.857C12.796 20.6857 13.0784 21.4819 13.5369 22.177C13.6116 22.2923 13.692 22.4038 13.7779 22.511V25.24C13.777 25.5431 13.8455 25.8423 13.9781 26.1148C14.1107 26.3873 14.3039 26.6257 14.5429 26.812L19.068 30.3C19.1953 30.4005 19.28 30.5454 19.3046 30.7058C19.3293 30.8661 19.2923 31.0299 19.201 31.164L17.8769 33.106C17.7689 33.2666 17.7052 33.453 17.6922 33.6461C17.6792 33.8392 17.7174 34.0324 17.8029 34.206L18.567 35.747C18.6937 36.0044 18.7404 36.2938 18.701 36.578L17.691 43.943H22.6269L21.613 36.578C21.5738 36.2937 21.6209 36.0042 21.748 35.747L22.513 34.206C22.5984 34.0323 22.6364 33.8391 22.6233 33.6459C22.6101 33.4528 22.5461 33.2665 22.4379 33.106L21.114 31.164C21.0227 31.0311 20.9848 30.8686 21.008 30.709C21.0312 30.5494 21.1137 30.4045 21.239 30.303Z" fill="#68768C"/>
</svg>
