<svg width="3840" height="2160" viewBox="0 0 3840 2160" fill="none" xmlns="http://www.w3.org/2000/svg">
<g clip-path="url(#clip0_206_595)">
<rect width="3840" height="2160" fill="white"/>
<path d="M1828.76 1216.7C2275.37 1041.18 3031.66 812.547 3063.52 -268L3452 4.69977C3249.65 1047.79 2893.03 1168.63 2324 1425.68C1706.69 1704.54 1009.31 2318.49 828.768 2376.63C648.222 2434.76 631.452 2238.56 828.768 2036.2C1026.08 1833.84 1382.15 1392.23 1828.76 1216.7Z" fill="#9D170E"/>
<path d="M1940.83 1407.7C2387.47 1232.18 3361.45 1003.55 3393.32 -77H3883C3808.65 960.504 3133.17 1482.05 2467.96 1610.06C1802.75 1738.07 1121.33 2509.49 940.776 2567.63C760.219 2625.76 743.449 2429.56 940.776 2227.2C1138.1 2024.84 1494.19 1583.23 1940.83 1407.7Z" fill="#F9DB08"/>
</g>
<defs>
<clipPath id="clip0_206_595">
<rect width="3840" height="2160" fill="white"/>
</clipPath>
</defs>
</svg>
