<?xml version="1.0" ?>
<!-- Uploaded to: SVG Repo, www.svgrepo.com, Generator: SVG Repo Mixer Tools -->
<svg width="800px" height="800px" viewBox="0 0 6.3500002 6.3500002" id="svg1976" version="1.1" xmlns="http://www.w3.org/2000/svg" xmlns:cc="http://creativecommons.org/ns#" xmlns:dc="http://purl.org/dc/elements/1.1/" xmlns:inkscape="http://www.inkscape.org/namespaces/inkscape" xmlns:rdf="http://www.w3.org/1999/02/22-rdf-syntax-ns#" xmlns:sodipodi="http://sodipodi.sourceforge.net/DTD/sodipodi-0.dtd" xmlns:svg="http://www.w3.org/2000/svg">
<defs id="defs1970"/>
<g id="layer1" style="display:inline">
<path d="m 2.5032059,-0.0095735 c -0.043217,-6.35e-4 -0.0909,0.00531 -0.1493441,0.024289 C 2.2369795,0.0525379 2.1848433,0.1094109 2.1259683,0.1650936 2.0670958,0.2207129 2.0130256,0.2808305 1.9606037,0.3407933 1.8557572,0.4607694 1.7291409,0.5919178 1.7440793,0.5810887 1.7590282,0.5703466 1.5965582,0.6493864 1.4500399,0.7118302 1.3767847,0.7430018 1.3005529,0.7771219 1.2293826,0.8156998 1.1582044,0.8544035 1.0898255,0.885282 1.0175096,0.9846817 0.9451937,1.0840436 0.9358089,1.159797 0.9208732,1.2394466 0.9059507,1.319096 0.8985953,1.400403 0.8914171,1.479742 0.8770502,1.6384195 0.8500416,1.8161314 0.8557619,1.7985856 c 0.00572,-0.017558 -0.07988,0.1429176 -0.1617478,0.2795696 -0.040934,0.068351 -0.082447,0.141311 -0.1173056,0.214457 -0.034859,0.073146 -0.069638,0.1380463 -0.069763,0.2609662 -1.217e-4,0.1229198 0.03557,0.1882605 0.070279,0.2614827 0.034711,0.073247 0.07651,0.1434605 0.1173057,0.2118733 0.081592,0.1368131 0.1663991,0.2976496 0.1607158,0.2800863 -0.00569,-0.017526 0.019526,0.1632389 0.033589,0.3219442 0.00704,0.079296 0.014684,0.1606161 0.029456,0.2402954 0.014764,0.079742 0.022966,0.1557634 0.095083,0.2552817 0.072115,0.099531 0.1412954,0.130652 0.2123916,0.1694987 0.071099,0.038784 0.1469443,0.071021 0.2201413,0.1023191 0.1463886,0.062722 0.3099884,0.1442029 0.2950712,0.1333254 -0.014922,-0.010713 0.109855,0.1175901 0.2144581,0.2377115 0.0523,0.060092 0.1060847,0.1214847 0.1648486,0.1772502 0.058759,0.055816 0.1110827,0.1117997 0.2278909,0.1498616 0.1168056,0.03815 0.190463,0.023744 0.2707852,0.013435 0.080328,-0.010432 0.1605915,-0.026186 0.2382282,-0.043925 0.1552734,-0.035351 0.3341952,-0.068207 0.3157432,-0.068213 -0.018441,-1.85e-5 0.1595093,0.03148 0.3147086,0.06718 0.077602,0.017849 0.1568874,0.035993 0.2371963,0.046509 0.08029,0.010893 0.1544188,0.024387 0.2713012,-0.013436 C 4.1130209,5.0582357 4.1651597,5.0033666 4.2240321,4.9477472 4.2829046,4.8921276 4.3395598,4.8298801 4.3919791,4.7699803 4.4968281,4.6500042 4.6208595,4.521427 4.6059211,4.5322686 4.5909722,4.543008 4.7555086,4.4639712 4.9020269,4.4015274 4.9752821,4.3703558 5.0494475,4.3357186 5.1206178,4.2971408 5.1917933,4.258437 5.2601749,4.2280628 5.3324908,4.1286758 5.4048041,4.0293137 5.4141915,3.9535603 5.4291272,3.8739109 5.4440497,3.7942615 5.4514051,3.7129545 5.4585806,3.6336155 5.4729475,3.4749377 5.4999562,3.2946422 5.4942385,3.312188 5.4885235,3.3297458 5.5741162,3.1692831 5.6559863,3.0326187 5.69692,2.9642673 5.7384331,2.8938913 5.7732919,2.8207451 5.8081508,2.7475992 5.8429303,2.6827115 5.8430546,2.5597792 5.8431763,2.4368593 5.807484,2.3715183 5.7727734,2.2982965 5.7380653,2.2250492 5.6967824,2.152252 5.6559863,2.0838392 5.5743941,1.9470137 5.4890712,1.7882568 5.4947545,1.8058201 5.500443,1.8233461 5.4752282,1.6425809 5.4611656,1.4838759 5.4541542,1.404454 5.4464812,1.3232598 5.4317096,1.2435805 5.4169458,1.163838 5.4087437,1.0878171 5.3366262,0.9882988 5.2645114,0.8887679 5.1953308,0.8581762 5.1242346,0.8193169 5.0531358,0.7805332 4.977285,0.7458378 4.9040933,0.7144138 4.7577047,0.6516914 4.5941022,0.5728705 4.6090221,0.5836723 4.6239446,0.5943853 4.499683,0.4630319 4.39508,0.3428602 4.3427798,0.282768 4.2884767,0.2219049 4.2297154,0.1661267 4.1709567,0.1103108 4.1186327,0.0543271 4.0018218,0.0162652 3.8850188,-0.0218851 3.8113668,-0.0055365 3.7310393,0.004896 3.6507118,0.0153285 3.5704478,0.0315991 3.4928111,0.0493378 3.3375377,0.0846891 3.1586212,0.1174185 3.1770679,0.1175506 3.1955094,0.1175694 3.0175559,0.0834873 2.8623566,0.0477876 2.784757,0.0299388 2.7054693,0.0138614 2.6251629,0.0033458 2.5850177,-0.002102 2.5464229,-0.0089361 2.5032059,-0.0095735 Z m 0.6810957,1.3916462 a 0.26407552,0.26514563 1.664302 0 1 0.2098067,0.1069702 l 0.3064404,0.4149617 0.5167657,0.1953371 a 0.26407552,0.26514563 1.664302 0 1 0.1209225,0.403076 L 4.0395461,2.9240974 4.0142255,3.4780688 A 0.26407552,0.26514563 1.664302 0 1 3.6721272,3.7188812 L 3.1791343,3.563335 2.6468667,3.7090625 A 0.26407552,0.26514563 1.664302 0 1 2.3109702,3.4548146 L 2.3068427,2.9364998 2.0050537,2.4734789 A 0.26407552,0.26514563 1.664302 0 1 2.1404463,2.0760872 L 2.6324046,1.9133065 2.9781198,1.4807747 a 0.26407552,0.26514563 1.664302 0 1 0.1865524,-0.098185 0.26407552,0.26514563 1.664302 0 1 0.019632,-5.292e-4 z" id="path802" style="color:#000000;font-style:normal;font-variant:normal;font-weight:normal;font-stretch:normal;font-size:medium;line-height:normal;font-family:sans-serif;font-variant-ligatures:normal;font-variant-position:normal;font-variant-caps:normal;font-variant-numeric:normal;font-variant-alternates:normal;font-variant-east-asian:normal;font-feature-settings:normal;font-variation-settings:normal;text-indent:0;text-align:start;text-decoration:none;text-decoration-line:none;text-decoration-style:solid;text-decoration-color:#000000;letter-spacing:normal;word-spacing:normal;text-transform:none;writing-mode:lr-tb;direction:ltr;text-orientation:mixed;dominant-baseline:auto;baseline-shift:baseline;text-anchor:start;white-space:normal;shape-padding:0;shape-margin:0;inline-size:0;clip-rule:nonzero;display:inline;overflow:visible;visibility:visible;isolation:auto;mix-blend-mode:normal;color-interpolation:sRGB;color-interpolation-filters:linearRGB;solid-color:#000000;solid-opacity:1;vector-effect:none;fill:#000000;fill-opacity:1;fill-rule:nonzero;stroke:none;stroke-width:0.529167;stroke-linecap:round;stroke-linejoin:round;stroke-miterlimit:4;stroke-dasharray:none;stroke-dashoffset:0;stroke-opacity:1;paint-order:stroke fill markers;color-rendering:auto;image-rendering:auto;shape-rendering:auto;text-rendering:auto;enable-background:accumulate;stop-color:#000000"/>
<path d="m 1.32395,4.6940153 v 0.8454266 c 0,0.22689 0.085796,0.4353634 0.2320264,0.5999633 0.073102,0.0823 0.1640284,0.155757 0.2831888,0.1953369 0.1191578,0.0396 0.2710842,0.033444 0.396875,-0.029456 L 3.1755175,5.8365814 4.1149947,6.3052865 a 0.26460996,0.26460996 0 0 0 0.1188561,0.027389 c 0.4351602,0 0.7932315,-0.3580833 0.7932315,-0.7932332 V 4.6976326 c -0.1063255,0.047962 -0.2399666,0.1090639 -0.2284096,0.1007693 0.01696,-0.0123 -0.1239096,0.1336209 -0.2428795,0.2697509 -0.059468,0.06796 -0.1238859,0.1384379 -0.1906852,0.2015381 -0.066799,0.0631 -0.1257724,0.1255652 -0.2583815,0.168465 -0.1326198,0.0429 -0.2168922,0.027386 -0.3079909,0.014986 -0.09112,-0.011999 -0.1806178,-0.03241 -0.2687188,-0.05271 -0.1760908,-0.0405 -0.3779838,-0.075984 -0.3570843,-0.075964 0.020929,0 -0.1824646,0.036898 -0.3586348,0.076998 -0.08809,0.0201 -0.1791679,0.038326 -0.2702666,0.050126 -0.09113,0.0117 -0.1744398,0.027797 -0.306959,-0.015502 C 2.1045317,5.3929098 2.0448735,5.3293743 1.9781747,5.2660743 1.9114944,5.2028043 1.8504047,5.133253 1.7911063,5.0650529 1.6724248,4.9287629 1.5313251,4.7831021 1.5482267,4.795302 1.5595777,4.803572 1.4276667,4.741909 1.32395,4.6940153 Z" id="path804" style="color:#000000;font-style:normal;font-variant:normal;font-weight:normal;font-stretch:normal;font-size:medium;line-height:normal;font-family:sans-serif;font-variant-ligatures:normal;font-variant-position:normal;font-variant-caps:normal;font-variant-numeric:normal;font-variant-alternates:normal;font-variant-east-asian:normal;font-feature-settings:normal;font-variation-settings:normal;text-indent:0;text-align:start;text-decoration:none;text-decoration-line:none;text-decoration-style:solid;text-decoration-color:#000000;letter-spacing:normal;word-spacing:normal;text-transform:none;writing-mode:lr-tb;direction:ltr;text-orientation:mixed;dominant-baseline:auto;baseline-shift:baseline;text-anchor:start;white-space:normal;shape-padding:0;shape-margin:0;inline-size:0;clip-rule:nonzero;display:inline;overflow:visible;visibility:visible;isolation:auto;mix-blend-mode:normal;color-interpolation:sRGB;color-interpolation-filters:linearRGB;solid-color:#000000;solid-opacity:1;vector-effect:none;fill:#000000;fill-opacity:1;fill-rule:nonzero;stroke:none;stroke-width:0.529167;stroke-linecap:round;stroke-linejoin:round;stroke-miterlimit:4;stroke-dasharray:none;stroke-dashoffset:0;stroke-opacity:1;paint-order:stroke fill markers;color-rendering:auto;image-rendering:auto;shape-rendering:auto;text-rendering:auto;enable-background:accumulate;stop-color:#000000"/>
</g>
</svg>