<svg width="111" height="69" viewBox="0 0 111 69" fill="none" xmlns="http://www.w3.org/2000/svg">
<path d="M9.375 10.75L14.1331 14.3186C14.5516 14.6324 15.1412 14.5708 15.4857 14.1771L24.5 3.875M25.875 13.5C25.875 16.0857 25.0651 18.6064 23.559 20.7082C22.0529 22.8099 19.9263 24.3871 17.4778 25.2183C15.0294 26.0494 12.3821 26.0927 9.90773 25.3421C7.43339 24.5916 5.25631 23.0848 3.68226 21.0334C2.1082 18.9821 1.21623 16.4892 1.13163 13.9049C1.04703 11.3206 1.77404 8.77473 3.21057 6.62482C4.64709 4.47491 6.72096 2.82897 9.14091 1.91817C11.5609 1.00736 14.2053 0.877448 16.7029 1.54667" stroke="white" stroke-width="2" stroke-linecap="round"/>
<rect x="38" y="11" width="73" height="6" rx="3" fill="white"/>
<rect x="27" y="30" width="73" height="6" rx="3" fill="white"/>
<rect x="27" y="41" width="73" height="6" rx="3" fill="white"/>
<rect x="27" y="52" width="73" height="6" rx="3" fill="white"/>
<rect x="27" y="63" width="73" height="6" rx="3" fill="white"/>
</svg>
