<svg width="114" height="72" viewBox="0 0 114 72" fill="none" xmlns="http://www.w3.org/2000/svg">
<path d="M12.375 13.75L17.1331 17.3186C17.5516 17.6324 18.1412 17.5707 18.4857 17.1771L27.5 6.875" stroke="#222222" stroke-width="2" stroke-linecap="round"/>
<path d="M28.875 16.5C28.875 19.0857 28.0651 21.6064 26.559 23.7082C25.0529 25.8099 22.9263 27.3871 20.4778 28.2183C18.0294 29.0494 15.3821 29.0927 12.9077 28.3421C10.4334 27.5916 8.25631 26.0848 6.68225 24.0334C5.10819 21.9821 4.21623 19.4892 4.13163 16.9049C4.04702 14.3206 4.77404 11.7747 6.21056 9.62482C7.64709 7.47491 9.72096 5.82897 12.1409 4.91816C14.5609 4.00736 17.2053 3.87745 19.7029 4.54667" stroke="#222222" stroke-width="2" stroke-linecap="round"/>
<rect x="41" y="14" width="73" height="6" rx="3" fill="black"/>
<rect x="30" y="33" width="73" height="6" rx="3" fill="#7D7D7D"/>
<rect x="30" y="44" width="73" height="6" rx="3" fill="#7D7D7D"/>
<rect x="30" y="55" width="73" height="6" rx="3" fill="#7D7D7D"/>
<rect x="30" y="66" width="73" height="6" rx="3" fill="#7D7D7D"/>
</svg>
